<?xml version="1.0" encoding="UTF-8" standalone="no"?>
<!-- Generator: Adobe Illustrator 18.0.0, SVG Export Plug-In . SVG Version: 6.00 Build 0)  -->

<svg
   xmlns:dc="http://purl.org/dc/elements/1.1/"
   xmlns:cc="http://creativecommons.org/ns#"
   xmlns:rdf="http://www.w3.org/1999/02/22-rdf-syntax-ns#"
   xmlns:svg="http://www.w3.org/2000/svg"
   xmlns="http://www.w3.org/2000/svg"
   xmlns:sodipodi="http://sodipodi.sourceforge.net/DTD/sodipodi-0.dtd"
   xmlns:inkscape="http://www.inkscape.org/namespaces/inkscape"
   version="1.1"
   id="Capa_1"
   x="0px"
   y="0px"
   viewBox="0 0 60 60"
   style="enable-background:new 0 0 60 60;"
   xml:space="preserve"
   sodipodi:docname="basket-svgrepo-com (copie).svg"
   inkscape:version="0.92.3 (2405546, 2018-03-11)"><metadata
   id="metadata207"><rdf:RDF><cc:Work
       rdf:about=""><dc:format>image/svg+xml</dc:format><dc:type
         rdf:resource="http://purl.org/dc/dcmitype/StillImage" /></cc:Work></rdf:RDF></metadata><defs
   id="defs205" /><sodipodi:namedview
   pagecolor="#ffffff"
   bordercolor="#666666"
   borderopacity="1"
   objecttolerance="10"
   gridtolerance="10"
   guidetolerance="10"
   inkscape:pageopacity="0"
   inkscape:pageshadow="2"
   inkscape:window-width="865"
   inkscape:window-height="480"
   id="namedview203"
   showgrid="false"
   inkscape:zoom="3.9333333"
   inkscape:cx="30"
   inkscape:cy="30"
   inkscape:window-x="296"
   inkscape:window-y="76"
   inkscape:window-maximized="0"
   inkscape:current-layer="Capa_1" />
<g
   id="g170"
   style="fill:#ffffff">
	<path
   d="M60,19.5h-7.599L46.573,5.659C46.021,4.348,44.745,3.5,43.321,3.5h-1.463c-0.447-1.72-2-3-3.858-3H22   c-1.858,0-3.411,1.28-3.858,3h-1.463c-1.423,0-2.7,0.848-3.252,2.159L7.599,19.5H0v8h2v27.434C2,57.451,4.048,59.5,6.566,59.5   h46.867c2.518,0,4.566-2.049,4.566-4.566V27.5h2V19.5z M22,2.5h16c1.103,0,2,0.897,2,2s-0.897,2-2,2H22c-1.103,0-2-0.897-2-2   S20.897,2.5,22,2.5z M15.271,6.435C15.509,5.867,16.062,5.5,16.679,5.5h1.463c0.447,1.72,2,3,3.858,3h16   c1.858,0,3.411-1.28,3.858-3h1.463c0.617,0,1.169,0.367,1.408,0.935L50.231,19.5H9.769L15.271,6.435z M56,54.934   c0,0.924-0.495,1.729-1.23,2.181C54.906,56.943,55,56.736,55,56.5c0-0.552-0.448-1-1-1s-1,0.448-1,1   c0,0.485,0.352,0.871,0.811,0.962c-0.124,0.019-0.248,0.038-0.377,0.038H48h-6h-6h-6h-6h-6h-6H6.566   c-0.129,0-0.253-0.02-0.377-0.038C6.648,57.371,7,56.985,7,56.5c0-0.552-0.448-1-1-1s-1,0.448-1,1c0,0.236,0.094,0.443,0.23,0.614   C4.495,56.662,4,55.858,4,54.934V27.5h52V54.934z M58,25.5H2v-4h4.757l-0.679,1.612c-0.214,0.509,0.025,1.095,0.534,1.31   C6.739,24.475,6.87,24.5,7,24.5c0.39,0,0.761-0.229,0.922-0.612L8.927,21.5h42.146l1.005,2.388C52.239,24.271,52.61,24.5,53,24.5   c0.129,0,0.261-0.025,0.388-0.078c0.509-0.215,0.748-0.801,0.534-1.31L53.243,21.5H58V25.5z"
   id="path2"
   style="fill:#ffffff" />
	<circle
   cx="24"
   cy="32.5"
   r="1"
   id="circle4"
   style="fill:#ffffff" />
	<circle
   cx="27"
   cy="29.5"
   r="1"
   id="circle6"
   style="fill:#ffffff" />
	<circle
   cx="27"
   cy="35.5"
   r="1"
   id="circle8"
   style="fill:#ffffff" />
	<circle
   cx="30"
   cy="32.5"
   r="1"
   id="circle10"
   style="fill:#ffffff" />
	<circle
   cx="18"
   cy="32.5"
   r="1"
   id="circle12"
   style="fill:#ffffff" />
	<circle
   cx="21"
   cy="29.5"
   r="1"
   id="circle14"
   style="fill:#ffffff" />
	<circle
   cx="21"
   cy="35.5"
   r="1"
   id="circle16"
   style="fill:#ffffff" />
	<circle
   cx="6"
   cy="32.5"
   r="1"
   id="circle18"
   style="fill:#ffffff" />
	<circle
   cx="12"
   cy="32.5"
   r="1"
   id="circle20"
   style="fill:#ffffff" />
	<circle
   cx="9"
   cy="29.5"
   r="1"
   id="circle22"
   style="fill:#ffffff" />
	<circle
   cx="15"
   cy="29.5"
   r="1"
   id="circle24"
   style="fill:#ffffff" />
	<circle
   cx="9"
   cy="35.5"
   r="1"
   id="circle26"
   style="fill:#ffffff" />
	<circle
   cx="15"
   cy="35.5"
   r="1"
   id="circle28"
   style="fill:#ffffff" />
	<circle
   cx="54"
   cy="32.5"
   r="1"
   id="circle30"
   style="fill:#ffffff" />
	<circle
   cx="48"
   cy="32.5"
   r="1"
   id="circle32"
   style="fill:#ffffff" />
	<circle
   cx="51"
   cy="29.5"
   r="1"
   id="circle34"
   style="fill:#ffffff" />
	<circle
   cx="51"
   cy="35.5"
   r="1"
   id="circle36"
   style="fill:#ffffff" />
	<circle
   cx="33"
   cy="29.5"
   r="1"
   id="circle38"
   style="fill:#ffffff" />
	<circle
   cx="33"
   cy="35.5"
   r="1"
   id="circle40"
   style="fill:#ffffff" />
	<circle
   cx="36"
   cy="32.5"
   r="1"
   id="circle42"
   style="fill:#ffffff" />
	<circle
   cx="42"
   cy="32.5"
   r="1"
   id="circle44"
   style="fill:#ffffff" />
	<circle
   cx="24"
   cy="38.5"
   r="1"
   id="circle46"
   style="fill:#ffffff" />
	<circle
   cx="30"
   cy="38.5"
   r="1"
   id="circle48"
   style="fill:#ffffff" />
	<circle
   cx="18"
   cy="38.5"
   r="1"
   id="circle50"
   style="fill:#ffffff" />
	<circle
   cx="6"
   cy="38.5"
   r="1"
   id="circle52"
   style="fill:#ffffff" />
	<circle
   cx="12"
   cy="38.5"
   r="1"
   id="circle54"
   style="fill:#ffffff" />
	<circle
   cx="54"
   cy="38.5"
   r="1"
   id="circle56"
   style="fill:#ffffff" />
	<circle
   cx="48"
   cy="38.5"
   r="1"
   id="circle58"
   style="fill:#ffffff" />
	<circle
   cx="36"
   cy="38.5"
   r="1"
   id="circle60"
   style="fill:#ffffff" />
	<circle
   cx="42"
   cy="38.5"
   r="1"
   id="circle62"
   style="fill:#ffffff" />
	<circle
   cx="39"
   cy="29.5"
   r="1"
   id="circle64"
   style="fill:#ffffff" />
	<circle
   cx="45"
   cy="29.5"
   r="1"
   id="circle66"
   style="fill:#ffffff" />
	<circle
   cx="39"
   cy="35.5"
   r="1"
   id="circle68"
   style="fill:#ffffff" />
	<circle
   cx="45"
   cy="35.5"
   r="1"
   id="circle70"
   style="fill:#ffffff" />
	<circle
   cx="24"
   cy="44.5"
   r="1"
   id="circle72"
   style="fill:#ffffff" />
	<circle
   cx="27"
   cy="41.5"
   r="1"
   id="circle74"
   style="fill:#ffffff" />
	<circle
   cx="27"
   cy="47.5"
   r="1"
   id="circle76"
   style="fill:#ffffff" />
	<circle
   cx="30"
   cy="44.5"
   r="1"
   id="circle78"
   style="fill:#ffffff" />
	<circle
   cx="18"
   cy="44.5"
   r="1"
   id="circle80"
   style="fill:#ffffff" />
	<circle
   cx="21"
   cy="41.5"
   r="1"
   id="circle82"
   style="fill:#ffffff" />
	<circle
   cx="21"
   cy="47.5"
   r="1"
   id="circle84"
   style="fill:#ffffff" />
	<circle
   cx="6"
   cy="44.5"
   r="1"
   id="circle86"
   style="fill:#ffffff" />
	<circle
   cx="12"
   cy="44.5"
   r="1"
   id="circle88"
   style="fill:#ffffff" />
	<circle
   cx="9"
   cy="41.5"
   r="1"
   id="circle90"
   style="fill:#ffffff" />
	<circle
   cx="15"
   cy="41.5"
   r="1"
   id="circle92"
   style="fill:#ffffff" />
	<circle
   cx="9"
   cy="47.5"
   r="1"
   id="circle94"
   style="fill:#ffffff" />
	<circle
   cx="15"
   cy="47.5"
   r="1"
   id="circle96"
   style="fill:#ffffff" />
	<circle
   cx="54"
   cy="44.5"
   r="1"
   id="circle98"
   style="fill:#ffffff" />
	<circle
   cx="48"
   cy="44.5"
   r="1"
   id="circle100"
   style="fill:#ffffff" />
	<circle
   cx="51"
   cy="41.5"
   r="1"
   id="circle102"
   style="fill:#ffffff" />
	<circle
   cx="51"
   cy="47.5"
   r="1"
   id="circle104"
   style="fill:#ffffff" />
	<circle
   cx="33"
   cy="41.5"
   r="1"
   id="circle106"
   style="fill:#ffffff" />
	<circle
   cx="33"
   cy="47.5"
   r="1"
   id="circle108"
   style="fill:#ffffff" />
	<circle
   cx="36"
   cy="44.5"
   r="1"
   id="circle110"
   style="fill:#ffffff" />
	<circle
   cx="42"
   cy="44.5"
   r="1"
   id="circle112"
   style="fill:#ffffff" />
	<circle
   cx="24"
   cy="50.5"
   r="1"
   id="circle114"
   style="fill:#ffffff" />
	<circle
   cx="30"
   cy="50.5"
   r="1"
   id="circle116"
   style="fill:#ffffff" />
	<circle
   cx="18"
   cy="50.5"
   r="1"
   id="circle118"
   style="fill:#ffffff" />
	<circle
   cx="6"
   cy="50.5"
   r="1"
   id="circle120"
   style="fill:#ffffff" />
	<circle
   cx="12"
   cy="50.5"
   r="1"
   id="circle122"
   style="fill:#ffffff" />
	<circle
   cx="54"
   cy="50.5"
   r="1"
   id="circle124"
   style="fill:#ffffff" />
	<circle
   cx="48"
   cy="50.5"
   r="1"
   id="circle126"
   style="fill:#ffffff" />
	<circle
   cx="36"
   cy="50.5"
   r="1"
   id="circle128"
   style="fill:#ffffff" />
	<circle
   cx="42"
   cy="50.5"
   r="1"
   id="circle130"
   style="fill:#ffffff" />
	<circle
   cx="39"
   cy="41.5"
   r="1"
   id="circle132"
   style="fill:#ffffff" />
	<circle
   cx="45"
   cy="41.5"
   r="1"
   id="circle134"
   style="fill:#ffffff" />
	<circle
   cx="39"
   cy="47.5"
   r="1"
   id="circle136"
   style="fill:#ffffff" />
	<circle
   cx="45"
   cy="47.5"
   r="1"
   id="circle138"
   style="fill:#ffffff" />
	<circle
   cx="24"
   cy="56.5"
   r="1"
   id="circle140"
   style="fill:#ffffff" />
	<circle
   cx="27"
   cy="53.5"
   r="1"
   id="circle142"
   style="fill:#ffffff" />
	<circle
   cx="30"
   cy="56.5"
   r="1"
   id="circle144"
   style="fill:#ffffff" />
	<circle
   cx="18"
   cy="56.5"
   r="1"
   id="circle146"
   style="fill:#ffffff" />
	<circle
   cx="21"
   cy="53.5"
   r="1"
   id="circle148"
   style="fill:#ffffff" />
	<circle
   cx="12"
   cy="56.5"
   r="1"
   id="circle150"
   style="fill:#ffffff" />
	<circle
   cx="9"
   cy="53.5"
   r="1"
   id="circle152"
   style="fill:#ffffff" />
	<circle
   cx="15"
   cy="53.5"
   r="1"
   id="circle154"
   style="fill:#ffffff" />
	<circle
   cx="48"
   cy="56.5"
   r="1"
   id="circle156"
   style="fill:#ffffff" />
	<circle
   cx="51"
   cy="53.5"
   r="1"
   id="circle158"
   style="fill:#ffffff" />
	<circle
   cx="33"
   cy="53.5"
   r="1"
   id="circle160"
   style="fill:#ffffff" />
	<circle
   cx="36"
   cy="56.5"
   r="1"
   id="circle162"
   style="fill:#ffffff" />
	<circle
   cx="42"
   cy="56.5"
   r="1"
   id="circle164"
   style="fill:#ffffff" />
	<circle
   cx="39"
   cy="53.5"
   r="1"
   id="circle166"
   style="fill:#ffffff" />
	<circle
   cx="45"
   cy="53.5"
   r="1"
   id="circle168"
   style="fill:#ffffff" />
</g>
<g
   id="g172">
</g>
<g
   id="g174">
</g>
<g
   id="g176">
</g>
<g
   id="g178">
</g>
<g
   id="g180">
</g>
<g
   id="g182">
</g>
<g
   id="g184">
</g>
<g
   id="g186">
</g>
<g
   id="g188">
</g>
<g
   id="g190">
</g>
<g
   id="g192">
</g>
<g
   id="g194">
</g>
<g
   id="g196">
</g>
<g
   id="g198">
</g>
<g
   id="g200">
</g>
</svg>