<?xml version="1.0" encoding="UTF-8" standalone="no"?>
<!-- Generator: Adobe Illustrator 19.0.0, SVG Export Plug-In . SVG Version: 6.00 Build 0)  -->

<svg
   xmlns:dc="http://purl.org/dc/elements/1.1/"
   xmlns:cc="http://creativecommons.org/ns#"
   xmlns:rdf="http://www.w3.org/1999/02/22-rdf-syntax-ns#"
   xmlns:svg="http://www.w3.org/2000/svg"
   xmlns="http://www.w3.org/2000/svg"
   xmlns:sodipodi="http://sodipodi.sourceforge.net/DTD/sodipodi-0.dtd"
   xmlns:inkscape="http://www.inkscape.org/namespaces/inkscape"
   version="1.1"
   id="Capa_1"
   x="0px"
   y="0px"
   viewBox="0 0 488.728 488.728"
   style="enable-background:new 0 0 488.728 488.728;"
   xml:space="preserve"
   sodipodi:docname="edit-white.svg"
   inkscape:version="0.92.3 (2405546, 2018-03-11)"><metadata
   id="metadata41"><rdf:RDF><cc:Work
       rdf:about=""><dc:format>image/svg+xml</dc:format><dc:type
         rdf:resource="http://purl.org/dc/dcmitype/StillImage" /></cc:Work></rdf:RDF></metadata><defs
   id="defs39" /><sodipodi:namedview
   pagecolor="#ffffff"
   bordercolor="#666666"
   borderopacity="1"
   objecttolerance="10"
   gridtolerance="10"
   guidetolerance="10"
   inkscape:pageopacity="0"
   inkscape:pageshadow="2"
   inkscape:window-width="801"
   inkscape:window-height="481"
   id="namedview37"
   showgrid="false"
   inkscape:zoom="0.48288619"
   inkscape:cx="244.364"
   inkscape:cy="244.364"
   inkscape:window-x="0"
   inkscape:window-y="27"
   inkscape:window-maximized="0"
   inkscape:current-layer="Capa_1" />
<g
   id="g4"
   style="fill:#ffffff">
	<path
   d="M487.147,462.52l-36.4-167.6c0-4.2-2.1-7.3-5.2-10.4l-261.3-261.3c-20-22.9-74.3-38.1-112.4,0l-47.9,47.9   c-31,31-31,81.4,0,112.4l261.3,261.3c2.1,2.1,5.2,4.2,9.4,5.2l168.6,38.5C473.347,490.02,492.347,483.62,487.147,462.52z    M53.047,154.42c-15.6-15.6-15.6-39.6,0-55.2l47.9-47.9c15.2-15.2,40-15.2,55.2,0l238.4,238.4h-27.1c-11.4,0-20.8,9.4-20.8,20.8   v34.3h-34.3c-11.4,0-20.8,9.4-20.8,20.8v26.1L53.047,154.42z M333.047,415.72v-29.2h34.3c18,1.7,20.8-16.5,20.8-20.8v-34.4h29.2   l24,109.3L333.047,415.72z"
   id="path2"
   style="fill:#ffffff" />
</g>
<g
   id="g6">
</g>
<g
   id="g8">
</g>
<g
   id="g10">
</g>
<g
   id="g12">
</g>
<g
   id="g14">
</g>
<g
   id="g16">
</g>
<g
   id="g18">
</g>
<g
   id="g20">
</g>
<g
   id="g22">
</g>
<g
   id="g24">
</g>
<g
   id="g26">
</g>
<g
   id="g28">
</g>
<g
   id="g30">
</g>
<g
   id="g32">
</g>
<g
   id="g34">
</g>
</svg>