<?xml version="1.0" encoding="UTF-8" standalone="no"?>
<!-- Generator: Adobe Illustrator 18.0.0, SVG Export Plug-In . SVG Version: 6.00 Build 0)  -->

<svg
   xmlns:dc="http://purl.org/dc/elements/1.1/"
   xmlns:cc="http://creativecommons.org/ns#"
   xmlns:rdf="http://www.w3.org/1999/02/22-rdf-syntax-ns#"
   xmlns:svg="http://www.w3.org/2000/svg"
   xmlns="http://www.w3.org/2000/svg"
   xmlns:sodipodi="http://sodipodi.sourceforge.net/DTD/sodipodi-0.dtd"
   xmlns:inkscape="http://www.inkscape.org/namespaces/inkscape"
   version="1.1"
   id="Capa_1"
   x="0px"
   y="0px"
   viewBox="0 0 264.018 264.018"
   style="enable-background:new 0 0 264.018 264.018;"
   xml:space="preserve"
   sodipodi:docname="location-svgrepo-com (copie).svg"
   inkscape:version="0.92.3 (2405546, 2018-03-11)"><metadata
   id="metadata43"><rdf:RDF><cc:Work
       rdf:about=""><dc:format>image/svg+xml</dc:format><dc:type
         rdf:resource="http://purl.org/dc/dcmitype/StillImage" /></cc:Work></rdf:RDF></metadata><defs
   id="defs41" /><sodipodi:namedview
   pagecolor="#ffffff"
   bordercolor="#666666"
   borderopacity="1"
   objecttolerance="10"
   gridtolerance="10"
   guidetolerance="10"
   inkscape:pageopacity="0"
   inkscape:pageshadow="2"
   inkscape:window-width="801"
   inkscape:window-height="481"
   id="namedview39"
   showgrid="false"
   inkscape:zoom="0.89387843"
   inkscape:cx="132.009"
   inkscape:cy="132.009"
   inkscape:window-x="0"
   inkscape:window-y="27"
   inkscape:window-maximized="0"
   inkscape:current-layer="Capa_1" />
<g
   id="g6"
   style="fill:#ffffff">
	<path
   d="M132.009,0c-42.66,0-77.366,34.706-77.366,77.366c0,11.634,2.52,22.815,7.488,33.24c0.1,0.223,0.205,0.442,0.317,0.661   l58.454,113.179c2.146,4.154,6.431,6.764,11.106,6.764c4.676,0,8.961-2.609,11.106-6.764l58.438-113.148   c0.101-0.195,0.195-0.392,0.285-0.591c5.001-10.455,7.536-21.67,7.536-33.341C209.375,34.706,174.669,0,132.009,0z    M132.009,117.861c-22.329,0-40.495-18.166-40.495-40.495c0-22.328,18.166-40.494,40.495-40.494s40.495,18.166,40.495,40.494   C172.504,99.695,154.338,117.861,132.009,117.861z"
   id="path2"
   style="fill:#ffffff" />
	<path
   d="M161.81,249.018h-59.602c-4.143,0-7.5,3.357-7.5,7.5c0,4.143,3.357,7.5,7.5,7.5h59.602c4.143,0,7.5-3.357,7.5-7.5   C169.31,252.375,165.952,249.018,161.81,249.018z"
   id="path4"
   style="fill:#ffffff" />
</g>
<g
   id="g8">
</g>
<g
   id="g10">
</g>
<g
   id="g12">
</g>
<g
   id="g14">
</g>
<g
   id="g16">
</g>
<g
   id="g18">
</g>
<g
   id="g20">
</g>
<g
   id="g22">
</g>
<g
   id="g24">
</g>
<g
   id="g26">
</g>
<g
   id="g28">
</g>
<g
   id="g30">
</g>
<g
   id="g32">
</g>
<g
   id="g34">
</g>
<g
   id="g36">
</g>
</svg>